<svg width="168" height="44" viewBox="0 0 168 44" fill="none" xmlns="http://www.w3.org/2000/svg">
<path d="M36.652 9.25095L29.2712 4.94336C32.7061 8.48947 32.5784 9.12825 32.5784 11.7981V33.8293L37.0029 32.8153C38.1708 32.5476 39.0001 31.4981 39.0001 30.2874V13.3622C39.0001 11.666 38.1051 10.0989 36.652 9.25095Z" fill="url(#paint0_linear_313_163)"/>
<path d="M2.34811 34.7483L9.72888 39.0559C6.29401 35.5098 6.42176 34.871 6.42176 32.2011V10.1699L1.99722 11.184C0.829292 11.4517 0 12.5012 0 13.7118V30.637C0.000245208 32.3332 0.895253 33.9003 2.34811 34.7483Z" fill="url(#paint1_linear_313_163)"/>
<path d="M14.0634 10.3369C14.0634 11.9761 14.0634 14.7334 14.0634 17.9496H24.9392C24.9392 10.0597 24.9392 2.4492 24.9392 2.4492L21.8321 0.635988C20.3793 -0.211996 18.589 -0.211996 17.1361 0.635988L2.34934 9.26603C0.896478 10.114 0.00146484 11.6811 0.00146484 13.3771V13.7122C0.00146484 12.5016 0.830519 11.452 1.99869 11.1843C1.99869 11.1843 5.3193 10.4338 6.42323 10.1703C10.58 9.17704 14.0634 8.92223 14.0634 10.3369Z" fill="white"/>
<path d="M37.003 32.8161C37.003 32.8161 33.7687 33.5399 32.5784 33.8304C29.3213 34.6251 24.938 35.0779 24.938 33.6635C24.938 32.0268 24.938 29.2689 24.938 26.051H14.0623C14.0623 33.9414 14.0623 41.5512 14.0623 41.5512L17.1693 43.3647C18.6221 44.2126 20.4124 44.2126 21.8653 43.3647L36.6521 34.7346C38.1052 33.8866 38.9999 32.3196 38.9999 30.6236V30.2885C39.0002 31.4988 38.1709 32.5483 37.003 32.8161Z" fill="white"/>
<path d="M54.4242 6.224V18H52.1042V13.216H46.8402V18H44.5202V6.224H46.8402V10.976H52.1042V6.224H54.4242ZM57.4577 6.224H65.4897V8.464H59.7777V10.976H64.8337V13.216H59.7777V15.76H65.7137V18H57.4577V6.224ZM67.154 6.224H70.114L77.794 18H74.802L67.154 6.224ZM66.994 18L71.186 11.408L72.274 13.744L69.874 18H66.994ZM72.434 10.544L74.866 6.224H77.682L73.634 12.544L72.434 10.544ZM78.3797 18L83.6917 5.76H83.8197L89.1317 18H86.4437L83.0517 9.392L84.7317 8.24L80.6677 18H78.3797ZM82.0117 13.744H85.5477L86.3637 15.696H81.2917L82.0117 13.744ZM90.8484 18V6.224H94.3684C95.5524 6.224 96.5604 6.4 97.3924 6.752C98.2244 7.104 98.891 7.57333 99.3924 8.16C99.9044 8.74667 100.278 9.40267 100.512 10.128C100.747 10.8533 100.864 11.584 100.864 12.32C100.864 13.1947 100.704 13.984 100.384 14.688C100.075 15.3813 99.6484 15.9787 99.1044 16.48C98.5604 16.9707 97.931 17.3493 97.2164 17.616C96.5017 17.872 95.7444 18 94.9444 18H90.8484ZM93.1684 15.76H94.5444C95.3337 15.76 96.0217 15.6267 96.6084 15.36C97.195 15.0827 97.6484 14.6773 97.9684 14.144C98.299 13.6107 98.4644 12.9493 98.4644 12.16C98.4644 11.392 98.3364 10.768 98.0804 10.288C97.835 9.79733 97.5257 9.41867 97.1524 9.152C96.7897 8.88533 96.4164 8.704 96.0324 8.608C95.6484 8.50133 95.323 8.448 95.0564 8.448H93.1684V15.76ZM103.192 6.224H111.224V8.464H105.512V10.976H110.568V13.216H105.512V15.76H111.448V18H103.192V6.224ZM122.68 17.024C122.552 17.1307 122.312 17.2747 121.96 17.456C121.619 17.6373 121.198 17.7973 120.696 17.936C120.195 18.0747 119.64 18.1387 119.032 18.128C118.104 18.1067 117.272 17.9413 116.536 17.632C115.811 17.312 115.192 16.88 114.68 16.336C114.179 15.792 113.795 15.168 113.528 14.464C113.262 13.76 113.128 13.008 113.128 12.208C113.128 11.312 113.262 10.4907 113.528 9.744C113.806 8.99733 114.195 8.352 114.696 7.808C115.208 7.264 115.816 6.84267 116.52 6.544C117.224 6.24533 118.003 6.096 118.856 6.096C119.646 6.096 120.344 6.20267 120.952 6.416C121.56 6.62933 122.056 6.85867 122.44 7.104L121.528 9.296C121.262 9.09333 120.904 8.88533 120.456 8.672C120.019 8.448 119.512 8.336 118.936 8.336C118.339 8.336 117.779 8.50133 117.256 8.832C116.744 9.16267 116.328 9.61067 116.008 10.176C115.699 10.7307 115.544 11.3653 115.544 12.08C115.544 12.8373 115.688 13.504 115.976 14.08C116.264 14.6453 116.675 15.088 117.208 15.408C117.742 15.728 118.366 15.888 119.08 15.888C119.71 15.888 120.248 15.7867 120.696 15.584C121.144 15.3813 121.486 15.168 121.72 14.944L122.68 17.024ZM125.005 6.224H127.325V18H125.005V6.224ZM130.364 18V5.744H130.38L136.924 15.024L135.932 14.8L142.46 5.744H142.492V18H140.172V10.976L140.316 12.176L136.332 17.84H136.3L132.204 12.176L132.604 11.072V18H130.364ZM144.208 18L149.52 5.76H149.648L154.96 18H152.272L148.88 9.392L150.56 8.24L146.496 18H144.208ZM147.84 13.744H151.376L152.192 15.696H147.12L147.84 13.744ZM156.676 6.224H158.996V15.76H164.532V18H156.676V6.224Z" fill="white"/>
<path d="M43.0002 25L167 25" stroke="white" stroke-linecap="round"/>
<path d="M48.8562 32.304C48.5202 32.12 48.1762 31.968 47.8242 31.848C47.4802 31.728 47.1562 31.668 46.8522 31.668C46.4762 31.668 46.1802 31.744 45.9642 31.896C45.7482 32.048 45.6402 32.276 45.6402 32.58C45.6402 32.788 45.7202 32.976 45.8802 33.144C46.0482 33.304 46.2602 33.448 46.5162 33.576C46.7802 33.704 47.0522 33.82 47.3322 33.924C47.6762 34.052 48.0082 34.216 48.3282 34.416C48.6482 34.608 48.9122 34.876 49.1202 35.22C49.3282 35.556 49.4322 36.004 49.4322 36.564C49.4322 37.012 49.3162 37.428 49.0842 37.812C48.8522 38.196 48.5122 38.508 48.0642 38.748C47.6162 38.98 47.0642 39.096 46.4082 39.096C45.9042 39.096 45.3882 39.02 44.8602 38.868C44.3402 38.716 43.8482 38.476 43.3842 38.148L44.1522 36.792C44.4562 37.016 44.8042 37.2 45.1962 37.344C45.5882 37.488 45.9402 37.56 46.2522 37.56C46.4602 37.56 46.6682 37.532 46.8762 37.476C47.0922 37.412 47.2682 37.308 47.4042 37.164C47.5482 37.02 47.6202 36.82 47.6202 36.564C47.6202 36.388 47.5602 36.228 47.4402 36.084C47.3282 35.94 47.1722 35.808 46.9722 35.688C46.7802 35.568 46.5682 35.464 46.3362 35.376C46.0642 35.272 45.7842 35.152 45.4962 35.016C45.2082 34.88 44.9362 34.716 44.6802 34.524C44.4322 34.324 44.2282 34.08 44.0682 33.792C43.9162 33.496 43.8402 33.136 43.8402 32.712C43.8402 32.2 43.9522 31.756 44.1762 31.38C44.4082 31.004 44.7322 30.708 45.1482 30.492C45.5642 30.268 46.0442 30.144 46.5882 30.12C47.3002 30.12 47.8762 30.204 48.3162 30.372C48.7642 30.54 49.1642 30.74 49.5162 30.972L48.8562 32.304ZM50.5963 34.596C50.5963 33.988 50.7123 33.412 50.9443 32.868C51.1763 32.324 51.4963 31.844 51.9043 31.428C52.3203 31.004 52.8003 30.672 53.3443 30.432C53.8883 30.192 54.4683 30.072 55.0843 30.072C55.7083 30.072 56.2923 30.192 56.8363 30.432C57.3803 30.672 57.8603 31.004 58.2763 31.428C58.7003 31.844 59.0283 32.324 59.2603 32.868C59.5003 33.412 59.6203 33.988 59.6203 34.596C59.6203 35.22 59.5003 35.804 59.2603 36.348C59.0283 36.892 58.7003 37.372 58.2763 37.788C57.8603 38.196 57.3803 38.516 56.8363 38.748C56.2923 38.98 55.7123 39.096 55.0963 39.096C54.4723 39.096 53.8883 38.98 53.3443 38.748C52.8003 38.516 52.3203 38.196 51.9043 37.788C51.4963 37.372 51.1763 36.892 50.9443 36.348C50.7123 35.804 50.5963 35.22 50.5963 34.596ZM52.3963 34.596C52.3963 35.116 52.5163 35.592 52.7563 36.024C53.0043 36.448 53.3363 36.788 53.7523 37.044C54.1683 37.292 54.6363 37.416 55.1563 37.416C55.6603 37.416 56.1123 37.292 56.5123 37.044C56.9203 36.788 57.2403 36.448 57.4723 36.024C57.7043 35.592 57.8203 35.116 57.8203 34.596C57.8203 34.06 57.7003 33.58 57.4603 33.156C57.2203 32.724 56.8963 32.384 56.4883 32.136C56.0803 31.88 55.6203 31.752 55.1083 31.752C54.5963 31.752 54.1363 31.88 53.7283 32.136C53.3203 32.384 52.9963 32.724 52.7563 33.156C52.5163 33.58 52.3963 34.06 52.3963 34.596ZM61.3551 30.168H66.8751V31.848H63.0951V33.852H66.3711V35.532H63.0951V39H61.3551V30.168ZM67.9504 30.168H73.9024V31.848H71.7544V39H70.0144V31.848H67.9504V30.168ZM74.8257 30.228H76.8657L78.7497 35.772L78.4737 35.652L80.1177 31.56L80.9217 33.948L78.3777 39.408L74.8257 30.228ZM79.2537 30.228H80.9817L83.1537 35.592L82.8417 35.544L84.4617 30.228H86.3337L82.9257 39.384L79.2537 30.228ZM85.6716 39L89.6556 29.82H89.7516L93.7356 39H91.7196L89.1756 32.544L90.4356 31.68L87.3876 39H85.6716ZM88.3956 35.808H91.0476L91.6596 37.272H87.8556L88.3956 35.808ZM97.6991 30.168C98.4431 30.168 99.0711 30.292 99.5831 30.54C100.095 30.78 100.483 31.124 100.747 31.572C101.019 32.012 101.155 32.536 101.155 33.144C101.155 33.504 101.099 33.864 100.987 34.224C100.883 34.584 100.707 34.912 100.459 35.208C100.219 35.504 99.8991 35.744 99.4991 35.928C99.0991 36.104 98.6031 36.192 98.0111 36.192H96.7631V39H95.0231V30.168H97.6991ZM97.9991 34.512C98.3511 34.512 98.6231 34.44 98.8151 34.296C99.0151 34.144 99.1551 33.968 99.2351 33.768C99.3151 33.56 99.3551 33.372 99.3551 33.204C99.3551 33.108 99.3391 32.988 99.3071 32.844C99.2831 32.692 99.2271 32.54 99.1391 32.388C99.0511 32.236 98.9151 32.108 98.7311 32.004C98.5551 31.9 98.3151 31.848 98.0111 31.848H96.7631V34.512H97.9991ZM99.6311 35.592L101.815 39H99.7871L97.5551 35.64L99.6311 35.592ZM103.25 30.168H109.274V31.848H104.99V33.732H108.782V35.412H104.99V37.32H109.442V39H103.25V30.168Z" fill="white"/>
<defs>
<linearGradient id="paint0_linear_313_163" x1="34.1357" y1="4.94336" x2="34.1357" y2="33.8293" gradientUnits="userSpaceOnUse">
<stop stop-color="white"/>
<stop offset="1" stop-color="#999999"/>
</linearGradient>
<linearGradient id="paint1_linear_313_163" x1="4.86444" y1="39.0559" x2="4.86444" y2="10.1699" gradientUnits="userSpaceOnUse">
<stop stop-color="white"/>
<stop offset="1" stop-color="#999999"/>
</linearGradient>
</defs>
</svg>
