<svg width="60" height="60" viewBox="0 0 60 60" fill="none" xmlns="http://www.w3.org/2000/svg">
<rect width="60" height="60" fill="#002E83"/>
<path d="M38.6666 23.3333C38.6666 20.1906 38.6666 18.6193 37.6903 17.6429C36.7139 16.6666 35.1426 16.6666 31.9999 16.6666H27.9999C24.8572 16.6666 23.2859 16.6666 22.3096 17.6429C21.3333 18.6193 21.3333 20.1906 21.3333 23.3333M38.6666 36.6666C38.6666 39.8093 38.6666 41.3806 37.6903 42.357C36.7139 43.3333 35.1426 43.3333 31.9999 43.3333H27.9999C24.8572 43.3333 23.2859 43.3333 22.3096 42.357C21.3333 41.3806 21.3333 39.8093 21.3333 36.6666" stroke="white" stroke-width="2" stroke-linecap="round" stroke-linejoin="round"/>
<path d="M32.6666 16.6666H27.3333L27.9999 18H31.9999L32.6666 16.6666Z" stroke="white" stroke-width="2" stroke-linecap="round" stroke-linejoin="round"/>
<path d="M34.6669 34.6667C34.6669 34.6667 39.3334 31.2297 39.3334 30C39.3334 28.7703 34.6667 25.3334 34.6667 25.3334" stroke="white" stroke-width="2" stroke-linecap="round" stroke-linejoin="round"/>
<path d="M25.3334 34.6667C25.3334 34.6667 20.6668 31.2298 20.6667 30C20.6667 28.7703 25.3334 25.3334 25.3334 25.3334" stroke="white" stroke-width="2" stroke-linecap="round" stroke-linejoin="round"/>
</svg>
