<svg width="61" height="60" viewBox="0 0 61 60" fill="none" xmlns="http://www.w3.org/2000/svg">
<rect width="60" height="60" transform="translate(0.5)" fill="#002E83"/>
<path d="M32.2136 39.8196L22.2632 41.6675C20.3547 42.0219 19.4005 42.1991 18.8507 41.6493C18.301 41.0995 18.4782 40.1452 18.8326 38.2365L20.6803 28.2857C20.9766 26.6902 21.1247 25.8923 21.6507 25.4103C22.1767 24.9282 23.1385 24.8341 25.0623 24.646C26.9164 24.4646 28.6711 23.829 30.5 22L38.5 30.0007C36.6711 31.8297 36.0351 33.5832 35.8535 35.4375C35.6651 37.3615 35.5708 38.3235 35.0888 38.8493C34.6068 39.3752 33.8091 39.5233 32.2136 39.8196Z" stroke="white" stroke-width="2" stroke-linejoin="round"/>
<path d="M29.1668 34.2806C28.4208 34.1596 27.7388 33.835 27.2019 33.2982M27.2019 33.2982C26.6651 32.7614 26.3406 32.0793 26.2195 31.3333M27.2019 33.2982L19.8335 40.6666" stroke="white" stroke-width="2" stroke-linecap="round"/>
<path d="M30.5 22C31.4497 20.5988 32.7361 18.2416 34.642 18.0146C35.9429 17.8597 37.0208 18.9375 39.1763 21.093L39.4069 21.3237C41.5625 23.4793 42.6403 24.557 42.4853 25.858C42.2584 27.7639 39.9012 29.0503 38.5 30" stroke="white" stroke-width="2" stroke-linejoin="round"/>
</svg>
