<svg width="61" height="60" viewBox="0 0 61 60" fill="none" xmlns="http://www.w3.org/2000/svg">
<rect width="60" height="60" transform="translate(0.5)" fill="#002E83"/>
<path d="M41.1665 27.504C41.1665 22.3952 41.1665 19.8408 39.6044 18.2537C38.0424 16.6666 35.5281 16.6666 30.4998 16.6666H27.8332C22.8049 16.6666 20.2907 16.6666 18.7286 18.2537C17.1665 19.8408 17.1665 22.3952 17.1665 27.504C17.1665 32.6128 17.1665 35.1672 18.7286 36.7542C19.3547 37.3904 20.1338 37.7716 21.1665 38" stroke="white" stroke-width="2" stroke-linecap="round"/>
<path d="M43.8332 37.3334C43.8332 34.8335 43.8332 33.5836 43.1965 32.7074C42.9909 32.4244 42.7421 32.1756 42.4592 31.97C41.5829 31.3334 40.333 31.3334 37.8332 31.3334H31.1665C28.6666 31.3334 27.4168 31.3334 26.5406 31.97C26.2576 32.1756 26.0087 32.4244 25.8031 32.7074C25.1665 33.5836 25.1665 34.8335 25.1665 37.3334C25.1665 39.8332 25.1665 41.0831 25.8031 41.9594C26.0087 42.2423 26.2576 42.4911 26.5406 42.6967C27.4168 43.3334 28.6666 43.3334 31.1665 43.3334H37.8332C40.333 43.3334 41.5829 43.3334 42.4592 42.6967C42.7421 42.4911 42.9909 42.2423 43.1965 41.9594C43.8332 41.0831 43.8332 39.8332 43.8332 37.3334Z" stroke="white" stroke-width="2"/>
<path d="M36.5 35.3334L37.7265 36.3906C38.2421 36.835 38.5 37.0572 38.5 37.3334C38.5 37.6095 38.2421 37.8318 37.7265 38.2762L36.5 39.3334" stroke="white" stroke-width="2" stroke-linecap="round" stroke-linejoin="round"/>
<path d="M32.5 35.3334L31.2735 36.3906C30.7579 36.835 30.5 37.0572 30.5 37.3334C30.5 37.6095 30.7579 37.8318 31.2735 38.2762L32.5 39.3334" stroke="white" stroke-width="2" stroke-linecap="round" stroke-linejoin="round"/>
<path d="M17.8335 22H40.5002" stroke="white" stroke-width="2" stroke-linecap="round" stroke-linejoin="round"/>
</svg>
