<svg width="60" height="60" viewBox="0 0 60 60" fill="none" xmlns="http://www.w3.org/2000/svg">
<rect width="60" height="60" fill="#002E83"/>
<path d="M23.334 38.0007V35.334M30.0007 38.0007V34.0007M36.6673 38.0007V31.334M17.334 30.0007C17.334 24.0295 17.334 21.044 19.189 19.189C21.044 17.334 24.0295 17.334 30.0007 17.334C35.9717 17.334 38.9573 17.334 40.8124 19.189C42.6673 21.044 42.6673 24.0295 42.6673 30.0007C42.6673 35.9717 42.6673 38.9573 40.8124 40.8124C38.9573 42.6673 35.9717 42.6673 30.0007 42.6673C24.0295 42.6673 21.044 42.6673 19.189 40.8124C17.334 38.9573 17.334 35.9717 17.334 30.0007Z" stroke="white" stroke-width="2" stroke-linecap="round" stroke-linejoin="round"/>
<path d="M21.9902 29.3138C24.8637 29.4095 31.3794 28.9758 35.0856 23.0938M32.657 22.3832L35.1577 21.9807C35.4625 21.9419 35.91 22.1825 36.02 22.4693L36.6812 24.6539" stroke="white" stroke-width="2" stroke-linecap="round" stroke-linejoin="round"/>
</svg>
