<svg width="60" height="60" viewBox="0 0 60 60" fill="none" xmlns="http://www.w3.org/2000/svg">
<rect width="60" height="60" fill="#002E83"/>
<path d="M37.3035 27.3334C37.3134 27.3333 37.3234 27.3333 37.3334 27.3333C40.6471 27.3333 43.3334 30.0196 43.3334 33.3333C43.3334 36.647 40.6471 39.3333 37.3334 39.3333H23.3334C19.6515 39.3333 16.6667 36.3485 16.6667 32.6666C16.6667 29.2004 19.3121 26.3521 22.694 26.0302M37.3035 27.3334C37.3233 27.1138 37.3334 26.8914 37.3334 26.6666C37.3334 22.6166 34.0502 19.3333 30.0001 19.3333C26.1644 19.3333 23.0165 22.2781 22.694 26.0302M37.3035 27.3334C37.1671 28.846 36.5715 30.2261 35.6571 31.3333M22.694 26.0302C22.9044 26.0102 23.1177 26 23.3334 26C24.8345 26 26.2197 26.4961 27.3341 27.3333" stroke="white" stroke-width="2" stroke-linecap="round" stroke-linejoin="round"/>
</svg>
