<svg width="60" height="60" viewBox="0 0 60 60" fill="none" xmlns="http://www.w3.org/2000/svg">
<rect width="60" height="60" fill="#002E83"/>
<path d="M28.6985 43.3333C34.4321 43.3333 39.2289 39.3229 40.437 33.9543C40.6845 32.8547 40.8082 32.3048 40.4068 31.8031C40.0054 31.3013 39.3558 31.3013 38.0568 31.3013H28.6985M28.6985 43.3333C22.0534 43.3333 16.6665 37.9464 16.6665 31.3013C16.6665 25.5678 20.6769 20.7709 26.0456 19.5628C27.1452 19.3153 27.695 19.1916 28.1968 19.593C28.6985 19.9944 28.6985 20.644 28.6985 21.9431V31.3013M28.6985 43.3333V31.3013" stroke="white" stroke-width="2" stroke-linejoin="round"/>
<path d="M42.7386 23.3686C41.6405 20.5812 39.4186 18.3594 36.6312 17.2613C35.1709 16.686 34.4408 16.3983 33.5536 17.0023C32.6665 17.6063 32.6665 18.5942 32.6665 20.5699V23.2753C32.6665 25.1883 32.6665 26.1447 33.2608 26.739C33.855 27.3333 34.8116 27.3333 36.7245 27.3333H39.4298C41.4057 27.3333 42.3936 27.3333 42.9976 26.4462C43.6016 25.5591 43.3138 24.8289 42.7386 23.3686Z" stroke="white" stroke-width="2" stroke-linejoin="round"/>
</svg>
