<svg width="52" height="52" viewBox="0 0 52 52" fill="none" xmlns="http://www.w3.org/2000/svg">
<path d="M26 0C11.664 0 0 11.664 0 26C0 40.336 11.664 52 26 52C40.336 52 52 40.336 52 26C52 11.664 40.336 0 26 0ZM26 10C30.418 10 34 13.582 34 18C34 22.418 30.418 26 26 26C21.582 26 18 22.418 18 18C18 13.582 21.582 10 26 10ZM27.32 48H24.68C18.24 47.5 11 43.64 11 39.4C11 37.26 12.2 35.92 13.88 35.1C21.18 31.44 33.08 32.38 38.12 35.06C39.78 35.94 41 37.26 41 39.4C41 43.64 33.78 47.5 27.32 48Z" fill="#A9A9A9"/>
</svg>
